<svg x="0" y="0" viewBox="0 0 146.5 138.2" xmlns="http://www.w3.org/2000/svg">
	<path d="M 35.2,75.2 L 42.66621,77.48555 38,75.8 Z M 42.66621,77.48555 L 50.756447,82.89101 46.94219,79.87187 Z M 50.756447,82.89101 L 56.713867,90.55585 54.037502,86.47499 Z M 56.713867,90.55585 L 59.966602,99.936325 58.714066,95.06563 Z M 59.966602,99.936325 L 60.23594,108.151566 60.4,105.100006 Z M 60.23594,108.151566 L 58,116.8 59.7625,111.1375 Z M 58,116.8 L 55.060936,122.11406 57.3,118.3 Z M 55.060936,122.11406 L 49.045315,128.57968 52.2875,125.5625 Z M 49.045315,128.57968 L 41.9,132.8375 45.4,131.09999 Z M 41.9,132.8375 L 34.2625,134.925 38.175003,134.125 Z M 34.2625,134.925 L 27.108765,135.04431 30.2,135.2 Z M 27.108765,135.04431 L 21.211647,133.84407 24.107618,134.5873 Z M 21.211647,133.84407 L 15.795581,131.55925 18.435938,132.82968 Z M 15.795581,131.55925 L 10.981275,128.31056 13.305664,130.04784 Z M 10.981275,128.31056 L 6.889428,124.21872 8.8375,126.3625 Z M 6.889428,124.21872 L 3.640747,119.40442 5.1521482,121.89433 Z M 3.640747,119.40442 L 1.3559326,113.98836 2.3703125,116.76407 Z M 1.3559326,113.98836 L 0.15568848,108.09123 0.61269534,111.09239 Z M 0.15568848,108.09123 L 0.16113281,101.890045 3.5527137E-15,105 Z M 0.16113281,101.890045 L 1.3974609,95.956055 0.6328125,98.870316 Z M 1.3974609,95.956055 L 3.7353516,90.50488 2.4375,93.162506 Z M 3.7353516,90.50488 L 9,83.5 5.2734375,87.99844 Z M 9,83.5 L 13.5,79.8 10.4,82.2 Z M 15.2,78.8 L 17.7,63.2 15.9625,70.8125 Z M 17.7,63.2 L 22.2875,52.2625 19.717188,57.576565 Z M 22.2875,52.2625 L 28.9,42.600002 25.364063,47.26719 Z M 28.9,42.600002 L 30.400002,42.112503 29.603125,42.145313 Z M 30.400002,42.112503 L 31.6,43.2 31.121876,42.47344 Z M 34.3375,50.0875 L 38.512497,57.1625 38.2,56.3 Z M 38.512497,57.1625 L 36.2,61.8 38.3,58.100002 Z M 32.3,74.899994 L 35.2,75.2 33.75,74.97499 Z M 35.2,75.2 L 50.756447,82.89101 42.66621,77.48555 Z M 50.756447,82.89101 L 59.966602,99.936325 56.713867,90.55585 Z M 59.966602,99.936325 L 58,116.8 60.23594,108.151566 Z M 58,116.8 L 49.045315,128.57968 55.060936,122.11406 Z M 49.045315,128.57968 L 34.2625,134.925 41.9,132.8375 Z M 34.2625,134.925 L 21.211647,133.84407 27.108765,135.04431 Z M 21.211647,133.84407 L 10.981275,128.31056 15.795581,131.55925 Z M 10.981275,128.31056 L 3.640747,119.40442 6.889428,124.21872 Z M 3.640747,119.40442 L 0.15568848,108.09123 1.3559326,113.98836 Z M 0.15568848,108.09123 L 1.3974609,95.956055 0.16113281,101.890045 Z M 1.3974609,95.956055 L 9,83.5 3.7353516,90.50488 Z M 9,83.5 L 14.35,79.3 13.5,79.8 Z M 15.2,78.8 L 22.2875,52.2625 17.7,63.2 Z M 22.2875,52.2625 L 30.400002,42.112503 28.9,42.600002 Z M 30.400002,42.112503 L 34.3375,50.0875 31.6,43.2 Z M 34.3375,50.0875 L 36.2,61.8 38.512497,57.1625 Z M 32.3,74.899994 L 50.756447,82.89101 35.2,75.2 Z M 50.756447,82.89101 L 58,116.8 59.966602,99.936325 Z M 58,116.8 L 34.2625,134.925 49.045315,128.57968 Z M 34.2625,134.925 L 10.981275,128.31056 21.211647,133.84407 Z M 10.981275,128.31056 L 0.15568848,108.09123 3.640747,119.40442 Z M 0.15568848,108.09123 L 9,83.5 1.3974609,95.956055 Z M 9,83.5 L 15.2,78.8 14.35,79.3 Z M 15.2,78.8 L 30.400002,42.112503 22.2875,52.2625 Z M 30.400002,42.112503 L 36.2,61.8 34.3375,50.0875 Z M 32.3,74.899994 L 58,116.8 50.756447,82.89101 Z M 58,116.8 L 10.981275,128.31056 34.2625,134.925 Z M 10.981275,128.31056 L 9,83.5 0.15568848,108.09123 Z M 15.2,78.8 L 36.2,61.8 30.400002,42.112503 Z M 32.3,74.899994 L 10.981275,128.31056 58,116.8 Z M 10.981275,128.31056 L 15.2,78.8 9,83.5 Z M 15.2,78.8 L 33.725,68.16249 36.2,61.8 Z M 33.725,68.16249 L 10.981275,128.31056 32.3,74.899994 Z M 10.981275,128.31056 L 33.725,68.16249 15.2,78.8 Z " style="fill:#FFFFFF;fill-opacity:1;" />
	<path d="M 142.1,89.3 L 144.81094,94.97499 143.5,91.899994 Z M 144.81094,94.97499 L 146.27031,101.575 145.7375,98.2 Z M 146.27031,101.575 L 146.19843,108.567184 146.4,105.100006 Z M 146.19843,108.567184 L 144.67032,115.12656 145.6125,111.912506 Z M 144.67032,115.12656 L 142,120.8 143.4,118.2 Z M 142,120.8 L 139.5,124.3 140.4,123.2 Z M 139.5,124.3 L 135.4,128.4 137.5,126.399994 Z M 135.4,128.4 L 127.975,132.87187 130.59999,131.6 Z M 127.975,132.87187 L 122.3,134.59999 125.2,133.9 Z M 122.3,134.59999 L 117.787506,135.27501 119.3,135.09999 Z M 117.787506,135.27501 L 113.1,135.09999 116.2,135.3 Z M 113.1,135.09999 L 107.2,133.9 110.1,134.59999 Z M 107.2,133.9 L 101,131.09999 103.987495,132.65001 Z M 101,131.09999 L 86.3,136.7 93.875,134.3875 Z M 86.3,136.7 L 73.1,138.2 79.775,137.825 Z M 73.1,138.2 L 62.042183,136.93594 62.8,137.3 Z M 62.042183,136.93594 L 61.57656,135.45781 61.612495,136.2625 Z M 61.57656,135.45781 L 66.575,128.925 62,134.7 Z M 66.575,128.925 L 70.662506,121.67499 70.1,122.399994 Z M 70.662506,121.67499 L 71.6,121.399994 71.09844,121.47188 Z M 89.2,118.2 L 87.82968,114.92656 89.1,118 Z M 87.82968,114.92656 L 86.30156,108.36719 86.8875,111.71251 Z M 86.30156,108.36719 L 86.30156,101.4328 86.1,104.899994 Z M 86.30156,101.4328 L 87.82968,94.87343 86.8875,98.087494 Z M 87.82968,94.87343 L 90.5,89.2 89.1,91.8 Z M 90.5,89.2 L 93,85.7 92.1,86.8 Z M 93,85.7 L 97.1,81.7 95,83.600006 Z M 97.1,81.7 L 104.525,77.228134 101.9,78.5 Z M 104.525,77.228134 L 110.2,75.5 107.3,76.2 Z M 110.2,75.5 L 113.2,75 111.7,75.175 Z M 113.2,75 L 114.2,74.899994 113.7,74.91249 Z M 114.2,74.899994 L 119.4,75 116.3,74.8 Z M 119.4,75 L 125.3,76.2 122.4,75.5 Z M 125.3,76.2 L 131.3,78.899994 128.4,77.399994 Z M 131.3,78.899994 L 135.5,81.8 133.475,80.2375 Z M 135.5,81.8 L 139.6,85.8 137.6,83.7 Z M 139.6,85.8 L 142.1,89.3 140.5,86.899994 Z M 142.1,89.3 L 146.27031,101.575 144.81094,94.97499 Z M 146.27031,101.575 L 144.67032,115.12656 146.19843,108.567184 Z M 144.67032,115.12656 L 139.5,124.3 142,120.8 Z M 139.5,124.3 L 127.975,132.87187 135.4,128.4 Z M 127.975,132.87187 L 117.787506,135.27501 122.3,134.59999 Z M 117.787506,135.27501 L 107.2,133.9 113.1,135.09999 Z M 101,131.09999 L 73.1,138.2 86.3,136.7 Z M 73.1,138.2 L 61.57656,135.45781 62.042183,136.93594 Z M 66.575,128.925 L 71.6,121.399994 70.662506,121.67499 Z M 89.2,118.2 L 86.30156,108.36719 87.82968,114.92656 Z M 86.30156,108.36719 L 87.82968,94.87343 86.30156,101.4328 Z M 87.82968,94.87343 L 93,85.7 90.5,89.2 Z M 93,85.7 L 104.525,77.228134 97.1,81.7 Z M 104.525,77.228134 L 113.2,75 110.2,75.5 Z M 113.2,75 L 119.4,75 114.2,74.899994 Z M 119.4,75 L 131.3,78.899994 125.3,76.2 Z M 131.3,78.899994 L 139.6,85.8 135.5,81.8 Z M 139.6,85.8 L 146.27031,101.575 142.1,89.3 Z M 146.27031,101.575 L 139.5,124.3 144.67032,115.12656 Z M 139.5,124.3 L 117.787506,135.27501 127.975,132.87187 Z M 117.787506,135.27501 L 101,131.09999 107.2,133.9 Z M 101,131.09999 L 61.57656,135.45781 73.1,138.2 Z M 66.575,128.925 L 73.2,121.399994 71.6,121.399994 Z M 89.2,118.2 L 87.82968,94.87343 86.30156,108.36719 Z M 87.82968,94.87343 L 104.525,77.228134 93,85.7 Z M 104.525,77.228134 L 119.4,75 113.2,75 Z M 119.4,75 L 139.6,85.8 131.3,78.899994 Z M 139.6,85.8 L 139.5,124.3 146.27031,101.575 Z M 139.5,124.3 L 101,131.09999 117.787506,135.27501 Z M 101,131.09999 L 66.575,128.925 61.57656,135.45781 Z M 66.575,128.925 L 75.9,121.3 73.2,121.399994 Z M 89.2,118.2 L 104.525,77.228134 87.82968,94.87343 Z M 104.525,77.228134 L 139.6,85.8 119.4,75 Z M 139.6,85.8 L 101,131.09999 139.5,124.3 Z M 101,131.09999 L 75.9,121.3 66.575,128.925 Z M 89.2,118.2 L 139.6,85.8 104.525,77.228134 Z M 101,131.09999 L 82.775,120.274994 75.9,121.3 Z M 89.2,118.2 L 101,131.09999 139.6,85.8 Z M 101,131.09999 L 89.2,118.2 82.775,120.274994 Z " style="fill:#FFFFFF;fill-opacity:1;" />
	<path d="M 47.4,46.100002 L 44.789062,40.429688 46,43.5 Z M 44.789062,40.429688 L 43.34219,33.951565 43.8875,37.2375 Z M 43.34219,33.951565 L 43.2,30.5 43.2,30.6 Z M 43.2,30.5 L 43.9875,23.687502 43.401566,27.032814 Z M 43.9875,23.687502 L 46.2,17.400002 44.929688,20.473438 Z M 46.2,17.400002 L 49.2,12.400001 47.6,14.800001 Z M 49.2,12.400001 L 52,9.1 50.1,11.200001 Z M 52,9.1 L 56.38125,5.337501 54.1,7.100001 Z M 56.38125,5.337501 L 64.2,1.4000008 58.85,3.800001 Z M 64.2,1.4000008 L 70.1,0.20000076 67.1,0.70000076 Z M 70.1,0.20000076 L 73.2,7.599592E-07 71.649994,0.025000751 Z M 73.2,7.599592E-07 L 79.3,0.70000076 76.3,0.20000076 Z M 79.3,0.70000076 L 84.975,2.3718758 82.2,1.4000008 Z M 84.975,2.3718758 L 90.075,5.1406255 87.6,3.6250007 Z M 90.075,5.1406255 L 94.5,8.900001 92.4,6.9000006 Z M 94.5,8.900001 L 97.4,12.200001 96.5,11.000001 Z M 97.4,12.200001 L 100.4,17.2 99,14.6 Z M 100.4,17.2 L 102.6125,23.487501 101.67032,20.273438 Z M 102.6125,23.487501 L 103.4,30.300001 103.19844,26.832813 Z M 103.4,30.400002 L 115.6,40.4 109.8375,34.9875 Z M 115.6,40.4 L 122.675,49.6375 119.3625,44.81719 Z M 122.675,49.6375 L 127.8,60.3 125.5,54.81406 Z M 127.8,60.3 L 127.5,61.912502 127.856255,61.176563 Z M 127.5,61.912502 L 126,62.4 126.84375,62.367188 Z M 116.2,61.3 L 110.35,61.4625 111.3,61.600002 Z M 110.35,61.4625 L 107.5,57.2 109.7,60.8 Z M 98.2,47.3 L 96.4,49.600002 97.3,48.5 Z M 96.4,49.600002 L 92.3,53.600002 94.4,51.7 Z M 92.3,53.600002 L 84.875,58.07188 87.5,56.8 Z M 84.875,58.07188 L 79.2,59.8 82.1,59.100002 Z M 79.2,59.8 L 76.2,60.3 77.7,60.125 Z M 76.2,60.3 L 70,60.3 73.1,60.5 Z M 70,60.3 L 64.1,59.100002 67,59.8 Z M 64.1,59.100002 L 58.699997,56.875 61.324997,58.128124 Z M 58.699997,56.875 L 53.9,53.600002 56.225002,55.35938 Z M 53.9,53.600002 L 49.9,49.600002 51.8,51.7 Z M 49.9,49.600002 L 48.6375,47.9 49,48.5 Z M 48.2,47.3 L 47.4,46.100002 47.7625,46.7 Z M 47.4,46.100002 L 43.34219,33.951565 44.789062,40.429688 Z M 43.34219,33.951565 L 43.9875,23.687502 43.2,30.5 Z M 43.9875,23.687502 L 49.2,12.400001 46.2,17.400002 Z M 49.2,12.400001 L 56.38125,5.337501 52,9.1 Z M 56.38125,5.337501 L 70.1,0.20000076 64.2,1.4000008 Z M 70.1,0.20000076 L 79.3,0.70000076 73.2,7.599592E-07 Z M 79.3,0.70000076 L 90.075,5.1406255 84.975,2.3718758 Z M 90.075,5.1406255 L 97.4,12.200001 94.5,8.900001 Z M 97.4,12.200001 L 102.6125,23.487501 100.4,17.2 Z M 102.6125,23.487501 L 103.4,30.400002 103.4,30.300001 Z M 103.4,30.400002 L 122.675,49.6375 115.6,40.4 Z M 122.675,49.6375 L 127.5,61.912502 127.8,60.3 Z M 127.5,61.912502 L 121.175,61.587498 126,62.4 Z M 116.2,61.3 L 107.5,57.2 110.35,61.4625 Z M 98.2,47.3 L 92.3,53.600002 96.4,49.600002 Z M 92.3,53.600002 L 79.2,59.8 84.875,58.07188 Z M 79.2,59.8 L 70,60.3 76.2,60.3 Z M 70,60.3 L 58.699997,56.875 64.1,59.100002 Z M 58.699997,56.875 L 49.9,49.600002 53.9,53.600002 Z M 49.9,49.600002 L 48.2,47.3 48.6375,47.9 Z M 48.2,47.3 L 43.34219,33.951565 47.4,46.100002 Z M 43.34219,33.951565 L 49.2,12.400001 43.9875,23.687502 Z M 49.2,12.400001 L 70.1,0.20000076 56.38125,5.337501 Z M 70.1,0.20000076 L 90.075,5.1406255 79.3,0.70000076 Z M 90.075,5.1406255 L 102.6125,23.487501 97.4,12.200001 Z M 103.4,30.400002 L 127.5,61.912502 122.675,49.6375 Z M 127.5,61.912502 L 116.2,61.3 121.175,61.587498 Z M 116.2,61.3 L 103.2625,51.875004 107.5,57.2 Z M 98.2,47.3 L 79.2,59.8 92.3,53.600002 Z M 79.2,59.8 L 58.699997,56.875 70,60.3 Z M 58.699997,56.875 L 48.2,47.3 49.9,49.600002 Z M 48.2,47.3 L 49.2,12.400001 43.34219,33.951565 Z M 49.2,12.400001 L 90.075,5.1406255 70.1,0.20000076 Z M 90.075,5.1406255 L 103.4,30.400002 102.6125,23.487501 Z M 103.4,30.400002 L 116.2,61.3 127.5,61.912502 Z M 116.2,61.3 L 98.2,47.3 103.2625,51.875004 Z M 98.2,47.3 L 58.699997,56.875 79.2,59.8 Z M 58.699997,56.875 L 49.2,12.400001 48.2,47.3 Z M 49.2,12.400001 L 103.4,30.400002 90.075,5.1406255 Z M 103.4,30.400002 L 98.2,47.3 116.2,61.3 Z M 98.2,47.3 L 49.2,12.400001 58.699997,56.875 Z M 49.2,12.400001 L 98.2,47.3 103.4,30.400002 Z " style="fill:#FFFFFF;fill-opacity:1;" />
</svg>
